<?xml version="1.0" encoding="iso-8859-1"?>
<!-- Generator: Adobe Illustrator 19.0.0, SVG Export Plug-In . SVG Version: 6.00 Build 0)  -->
<svg version="1.1" id="Capa_1" xmlns="http://www.w3.org/2000/svg" xmlns:xlink="http://www.w3.org/1999/xlink" x="0px" y="0px"
	 viewBox="0 0 491.52 491.52" style="enable-background:new 0 0 491.52 491.52;" xml:space="preserve">
<g>
	<circle style="fill:#334D5C;" cx="245.76" cy="245.76" r="245.76"/>
	<path style="fill:#334D5C;" d="M352.768,178.688L352.768,178.688L352.768,178.688c-1.024-1.024-2.048-1.536-3.584-2.56
		L288.256,115.2c-6.656-10.24-18.432-2.56-24.064,2.048l-9.728-7.168c-0.512-0.512-1.024-0.512-1.024-1.024l0,0
		c-4.608-3.072-8.192,2.56-9.728,7.168l-5.632-3.072c-3.584-6.144-7.68-7.168-11.264-6.144c-4.096,1.536-8.192,6.144-10.752,10.24
		l-15.36-8.192c-3.072-3.072-6.144-4.096-8.704-4.608c-7.68-0.512-12.288,9.216-13.824,14.848l-12.288-3.072
		c-0.512,0-0.512,0-1.024,0l-1.024-0.512l0,0c-12.8-2.56-16.896,12.8-17.92,25.6h-0.512v4.608c-0.512,6.656,0,11.776,0,11.776
		v209.408h-3.584h-0.512H140.8c-2.56,0.512-4.608,2.56-5.12,5.12v0.512v0.512v6.656v0.512v0.512c0.512,2.56,2.56,4.608,5.12,5.12
		h0.512h0.512l104.96,105.472c113.152-0.512,208.384-77.824,236.544-182.272L352.768,178.688L352.768,178.688z"/>
</g>
<path style="opacity:0.1;enable-background:new    ;" d="M352.768,178.688L352.768,178.688L352.768,178.688
	c-1.024-1.024-2.048-1.536-3.584-2.56L288.256,115.2c-6.656-10.24-18.432-2.56-24.064,2.048l-9.728-7.168
	c-0.512-0.512-1.024-0.512-1.024-1.024l0,0c-4.608-3.072-8.192,2.56-9.728,7.168l-5.632-3.072c-3.584-6.144-7.68-7.168-11.264-6.144
	c-4.096,1.536-8.192,6.144-10.752,10.24l-15.36-8.192c-3.072-3.072-6.144-4.096-8.704-4.608c-7.68-0.512-12.288,9.216-13.824,14.848
	l-12.288-3.072c-0.512,0-0.512,0-1.024,0l-1.024-0.512l0,0c-12.8-2.56-16.896,12.8-17.92,25.6h-0.512v4.608
	c-0.512,6.656,0,11.776,0,11.776v209.408h-3.584h-0.512H140.8c-2.56,0.512-4.608,2.56-5.12,5.12v0.512v0.512v6.656v0.512v0.512
	c0.512,2.56,2.56,4.608,5.12,5.12h0.512h0.512l104.96,105.472c113.152-0.512,208.384-77.824,236.544-182.272L352.768,178.688
	L352.768,178.688z"/>
<path style="fill:#E1E6E9;" d="M145.92,157.696c0,0-4.096-62.976,31.744-34.816c0,0,9.728-41.472,34.816,2.048
	c0,0,16.896-38.4,30.208-3.072c0,0,6.656-28.672,18.944-1.024c0,0,34.816-36.352,32.256,29.184"/>
<path style="fill:#FFFFFF;" d="M345.088,330.752h-74.24V175.104h73.216c6.656,0,12.288,5.632,12.288,12.288v133.12
	C356.352,326.144,351.232,330.752,345.088,330.752z M285.184,316.416h46.08c6.144,0,10.752-4.608,10.752-10.752V202.24
	c0-7.168-5.632-12.8-12.8-12.8h-43.52v126.976L285.184,316.416L285.184,316.416z"/>
<rect x="145.92" y="141.31" style="fill:#EBF0F3;" width="147.97" height="225.28"/>
<rect x="145.92" y="141.31" style="fill:#FFFFFF;" width="72.19" height="225.28"/>
<path style="fill:#EBF0F3;" d="M296.96,386.56H142.336c-4.096,0-7.168-3.072-7.168-7.168v-5.632c0-4.096,3.072-7.168,7.168-7.168
	H296.96c4.096,0,7.168,3.072,7.168,7.168v5.632C303.616,383.488,300.544,386.56,296.96,386.56z"/>
<path style="fill:#FFFFFF;" d="M218.112,386.56h-76.288c-3.584,0-6.656-3.072-6.656-6.656v-6.656c0-3.584,3.072-6.656,6.656-6.656
	H217.6"/>
<rect x="155.65" y="175.1" style="fill:#FCD462;" width="125.95" height="181.76"/>
<rect x="155.65" y="175.1" style="fill:#F6C358;" width="60.928" height="181.76"/>
<g>
</g>
<g>
</g>
<g>
</g>
<g>
</g>
<g>
</g>
<g>
</g>
<g>
</g>
<g>
</g>
<g>
</g>
<g>
</g>
<g>
</g>
<g>
</g>
<g>
</g>
<g>
</g>
<g>
</g>
</svg>
