<?xml version="1.0" encoding="iso-8859-1"?>
<!-- Generator: Adobe Illustrator 19.0.0, SVG Export Plug-In . SVG Version: 6.00 Build 0)  -->
<svg version="1.1" id="Capa_1" xmlns="http://www.w3.org/2000/svg" xmlns:xlink="http://www.w3.org/1999/xlink" x="0px" y="0px"
	 viewBox="0 0 491.52 491.52" style="enable-background:new 0 0 491.52 491.52;" xml:space="preserve">
<g>
	<circle style="fill:#E05B49;" cx="245.76" cy="245.76" r="245.76"/>
	<path style="fill:#E05B49;" d="M315.392,145.92c-1.024,0-2.048,0-2.56,0l-23.552-23.552c-9.728-10.752-24.064-17.408-39.936-17.408
		c-26.624,0-48.64,18.944-53.76,44.544c-6.144-2.048-12.288-3.584-18.944-3.584c-30.208,0-54.272,24.576-54.272,54.272
		c0,14.848,6.144,28.672,15.872,38.4l0,0l0,0l0,0l38.4,38.4v109.056L279.552,488.96C382.976,475.136,465.92,396.288,486.4,294.912
		l-130.56-130.56C346.112,153.088,331.264,145.92,315.392,145.92z"/>
</g>
<path style="opacity:0.1;enable-background:new    ;" d="M315.392,145.92c-1.024,0-2.048,0-2.56,0l-23.552-23.552
	c-9.728-10.752-24.064-17.408-39.936-17.408c-26.624,0-48.64,18.944-53.76,44.544c-6.144-2.048-12.288-3.584-18.944-3.584
	c-30.208,0-54.272,24.576-54.272,54.272c0,14.848,6.144,28.672,15.872,38.4l0,0l0,0l0,0l38.4,38.4v109.056L279.552,488.96
	C382.976,475.136,465.92,396.288,486.4,294.912l-130.56-130.56C346.112,153.088,331.264,145.92,315.392,145.92z"/>
<path style="fill:#EBF0F3;" d="M176.128,254.976c-30.208,0-54.272-24.576-54.272-54.272c0-30.208,24.576-54.272,54.272-54.272
	c6.656,0,13.312,1.024,18.944,3.584c4.608-25.088,27.136-44.544,53.76-44.544c26.112,0,47.616,18.432,53.248,42.496
	c4.096-1.024,8.704-1.536,13.312-1.536c30.208,0,54.272,24.576,54.272,54.272c0,30.208-28.672,54.272-58.88,54.272V386.56H176.128
	V254.976z"/>
<path style="fill:#E1E6E9;" d="M248.832,386.56h-72.704V254.976c-30.208,0-54.272-24.576-54.272-54.272
	c0-30.208,24.576-54.272,54.272-54.272c6.656,0,13.312,1.024,18.944,3.584c4.608-25.088,27.136-44.544,53.76-44.544L248.832,386.56
	L248.832,386.56z"/>
<rect x="176.13" y="340.48" style="fill:#DC8744;" width="134.66" height="20.992"/>
<rect x="176.13" y="300.54" style="fill:#2F4859;" width="134.66" height="20.992"/>
<g>
</g>
<g>
</g>
<g>
</g>
<g>
</g>
<g>
</g>
<g>
</g>
<g>
</g>
<g>
</g>
<g>
</g>
<g>
</g>
<g>
</g>
<g>
</g>
<g>
</g>
<g>
</g>
<g>
</g>
</svg>
