<?xml version="1.0" encoding="iso-8859-1"?>
<!-- Generator: Adobe Illustrator 19.0.0, SVG Export Plug-In . SVG Version: 6.00 Build 0)  -->
<svg version="1.1" id="Capa_1" xmlns="http://www.w3.org/2000/svg" xmlns:xlink="http://www.w3.org/1999/xlink" x="0px" y="0px"
	 viewBox="0 0 491.52 491.52" style="enable-background:new 0 0 491.52 491.52;" xml:space="preserve">
<circle style="fill:#EA8953;" cx="245.76" cy="245.76" r="245.76"/>
<path style="opacity:0.1;enable-background:new    ;" d="M488.448,285.184L309.76,106.496c-11.264,5.12-16.896,26.112-19.968,48.128
	l-48.64-48.64l0,0l0,0l0,0c-0.512-0.512-1.024-1.024-2.048-1.024h-4.096c-1.536,0-3.072,1.024-3.072,3.072v7.168l-9.216-9.216l0,0
	l0,0l0,0c-0.512-0.512-1.024-1.024-2.048-1.024h-4.096c-1.536,0-3.072,1.024-3.072,3.072v7.68l-9.728-9.728l0,0l0,0l0,0
	c-0.512-0.512-1.024-1.024-2.048-1.024h-4.096c-1.536,0-3.072,1.024-3.072,3.072v7.168l-9.216-9.216l0,0l0,0l0,0
	c-0.512-0.512-1.024-1.024-2.048-1.024H179.2c-1.536,0-3.072,1.024-3.072,3.072v78.336v5.12v24.576c0,6.144,2.56,11.264,6.656,15.36
	l0,0l16.896,16.896l-7.168,94.72c0,1.536,0,2.56,0,4.096c0,18.432,5.12,35.328,12.288,38.4l98.816,98.816
	C398.848,461.824,472.576,382.976,488.448,285.184z"/>
<path style="fill:#3A556A;" d="M207.872,386.56L207.872,386.56c-9.728,0-16.384-20.992-15.36-43.52l8.704-135.68
	c0-3.584,3.072-6.656,6.656-6.656l0,0c3.584,0,6.144,2.56,6.656,6.656l8.704,135.68C224.256,365.568,217.6,386.56,207.872,386.56z"
	/>
<path style="fill:#64798A;" d="M207.36,386.56V201.216c0,0-6.144,2.56-6.656,6.656l-8.192,135.168
	C191.488,365.568,198.144,386.56,207.36,386.56L207.36,386.56"/>
<path style="fill:#FFFFFF;" d="M239.104,104.96h-4.096c-1.536,0-3.072,1.024-3.072,3.072v78.336h-8.704v-78.336
	c0-1.536-1.024-3.072-3.072-3.072h-4.096c-1.536,0-3.072,1.024-3.072,3.072v78.336h-9.216v-78.336c0-1.536-1.024-3.072-3.072-3.072
	h-4.096c-1.536,0-3.072,1.024-3.072,3.072v78.336h-8.704v-78.336c0-1.536-1.024-3.072-3.072-3.072h-4.096
	c-1.536,0-3.072,1.024-3.072,3.072v78.336v5.12v24.576c0,11.776,9.216,20.992,20.992,20.992h25.6
	c11.264,0,20.48-9.216,20.992-20.992v-24.576v-5.12v-78.336C242.176,106.496,241.152,104.96,239.104,104.96z"/>
<path style="fill:#3A556A;" d="M302.08,386.56L302.08,386.56c-9.728,0-16.384-20.992-15.36-43.52l8.704-135.68
	c0-3.584,3.072-6.656,6.656-6.656l0,0c3.584,0,6.144,2.56,6.656,6.656l8.192,135.68C318.464,365.568,311.808,386.56,302.08,386.56z"
	/>
<path style="fill:#64798A;" d="M302.08,386.56V201.216c0,0-6.144,2.56-6.656,6.656L286.72,343.04
	C285.696,365.568,292.352,386.56,302.08,386.56L302.08,386.56"/>
<path style="fill:#FFFFFF;" d="M311.808,109.056V253.44c0,0-25.6-28.672-25.088-45.568c0,0-1.536-90.112,23.04-101.376
	L311.808,109.056z"/>
<g>
</g>
<g>
</g>
<g>
</g>
<g>
</g>
<g>
</g>
<g>
</g>
<g>
</g>
<g>
</g>
<g>
</g>
<g>
</g>
<g>
</g>
<g>
</g>
<g>
</g>
<g>
</g>
<g>
</g>
</svg>
