<?xml version="1.0" encoding="iso-8859-1"?>
<!-- Generator: Adobe Illustrator 19.0.0, SVG Export Plug-In . SVG Version: 6.00 Build 0)  -->
<svg version="1.1" id="Capa_1" xmlns="http://www.w3.org/2000/svg" xmlns:xlink="http://www.w3.org/1999/xlink" x="0px" y="0px"
	 viewBox="0 0 491.52 491.52" style="enable-background:new 0 0 491.52 491.52;" xml:space="preserve">
<g>
	<circle style="fill:#45B39C;" cx="245.76" cy="245.76" r="245.76"/>
	<path style="fill:#45B39C;" d="M491.52,245.76c0-8.704-0.512-16.896-1.536-25.088L377.344,107.52L296.96,207.872l-99.84-99.84
		c-2.048-3.072-5.632-4.096-8.704-2.048l-71.168,44.544c-2.56,1.536-3.584,5.12-2.048,7.68l31.232,53.76
		c2.048,3.072,4.096,6.144,6.656,8.192l55.296,62.976l14.848,15.872l-40.96,47.104c-7.68,8.704-6.656,22.016,1.536,29.696
		L294.4,486.4C407.04,463.872,491.52,365.056,491.52,245.76z"/>
</g>
<path style="opacity:0.1;enable-background:new    ;" d="M491.52,245.76c0-8.704-0.512-16.896-1.536-25.088L377.344,107.52
	L296.96,207.872l-99.84-99.84c-2.048-3.072-5.632-4.096-8.704-2.048l-71.168,44.544c-2.56,1.536-3.584,5.12-2.048,7.68l31.232,53.76
	c2.048,3.072,4.096,6.144,6.656,8.192l55.296,62.976l14.848,15.872l-40.96,47.104c-7.68,8.704-6.656,22.016,1.536,29.696
	L294.4,486.4C407.04,463.872,491.52,365.056,491.52,245.76z"/>
<path style="fill:#DC8744;" d="M207.872,222.208l101.376,155.648c5.632,8.704,17.408,11.264,26.624,5.632l0,0
	c9.728-6.144,11.776-19.968,4.608-28.672l-122.368-140.8L207.872,222.208z"/>
<path style="fill:#E1E6E9;" d="M117.248,150.528l71.168-44.544c3.072-2.048,6.656-1.024,8.704,2.048l33.28,51.2
	c3.584,5.632,5.12,12.8,3.584,19.456l-9.728,43.008l-12.288,7.68l-37.376-0.512c-11.776,0-22.528-6.144-28.16-16.384L115.2,158.72
	C113.664,155.648,114.176,152.064,117.248,150.528z"/>
<g>
	<path style="fill:#DC8744;" d="M215.552,187.392l-38.912-61.44c-2.048-3.072-1.024-7.168,2.048-9.216l0,0
		c3.072-2.048,7.168-1.024,9.216,2.048l38.912,61.44c2.048,3.072,1.024,7.168-2.048,9.216l0,0
		C221.696,190.976,217.6,190.464,215.552,187.392z"/>
	<path style="fill:#DC8744;" d="M192,202.24l-38.912-61.44c-2.048-3.072-1.024-7.168,2.048-9.216l0,0
		c3.072-2.048,7.168-1.024,9.216,2.048l38.912,61.44c2.048,3.072,1.024,7.168-2.048,9.216l0,0
		C198.144,206.336,194.048,205.312,192,202.24z"/>
	<path style="fill:#DC8744;" d="M171.008,217.088l-38.912-61.44c-2.048-3.072-1.024-7.168,2.048-9.216l0,0
		c3.072-2.048,7.168-1.024,9.216,2.048l38.912,61.44c2.048,3.072,1.024,7.168-2.048,9.216l0,0
		C177.152,221.184,173.056,220.16,171.008,217.088z"/>
</g>
<path style="fill:#E1E6E9;" d="M377.344,107.52L237.056,283.136l47.104,39.424C284.16,322.56,371.2,171.008,377.344,107.52z"/>
<path style="fill:#3A556A;" d="M237.056,283.136l-54.784,62.976c-7.68,8.704-6.656,22.016,1.536,29.696l0,0
	c9.728,8.704,24.576,7.168,31.744-3.584l47.616-67.584L237.056,283.136z"/>
<g>
</g>
<g>
</g>
<g>
</g>
<g>
</g>
<g>
</g>
<g>
</g>
<g>
</g>
<g>
</g>
<g>
</g>
<g>
</g>
<g>
</g>
<g>
</g>
<g>
</g>
<g>
</g>
<g>
</g>
</svg>
