<?xml version="1.0" encoding="iso-8859-1"?>
<!-- Generator: Adobe Illustrator 19.0.0, SVG Export Plug-In . SVG Version: 6.00 Build 0)  -->
<svg version="1.1" id="Capa_1" xmlns="http://www.w3.org/2000/svg" xmlns:xlink="http://www.w3.org/1999/xlink" x="0px" y="0px"
	 viewBox="0 0 512 512" style="enable-background:new 0 0 512 512;" xml:space="preserve">
<g>
	<circle style="fill:#334D5C;" cx="256" cy="256" r="256"/>
	<path style="fill:#334D5C;" d="M244.752,146.643l-23.954-23.954c0,0-15.414,25.621-4.27,54.366
		c1.042,3.229,2.708,7.499,8.02,10.623c1.562,0.521,3.229,1.562,5.312,1.562c-1.042,2.083-2.083,4.27-3.229,6.353l-25.1-25.1
		c0,0-13.331,22.392-5.832,49.575l-9.061-9.061c0,0-15.414,25.621-4.27,54.366c0.521,1.042,1.042,2.083,1.562,3.749L173.305,258.5
		c0,0-15.414,25.621-4.27,54.366c1.041,3.229,2.708,7.499,8.02,10.623c1.562,1.042,3.749,1.562,6.353,1.562
		c-4.791,19.684-10.103,41.556-15.414,66.135c-0.521,2.708,1.042,5.832,4.27,6.353c0,0,0,0,0.521,0l111.44,111.44
		c105.087-10.311,190.906-85.507,218.714-184.762l-215.486-214.86C287.453,109.357,258.083,117.377,244.752,146.643z"/>
	<path style="fill:#334D5C;" d="M196.843,278.392c-0.521,1.042-0.521,2.083-1.042,3.229l-4.791-4.791
		C193.094,277.871,194.656,278.392,196.843,278.392z"/>
</g>
<path style="opacity:0.1;enable-background:new    ;" d="M244.752,146.643l-23.954-23.954c0,0-15.414,25.621-4.27,54.366
	c1.042,3.229,2.708,7.499,8.02,10.623c1.562,0.521,3.229,1.562,5.312,1.562c-1.042,2.083-2.083,4.27-3.229,6.353l-25.1-25.1
	c0,0-13.331,22.392-5.832,49.575l-9.061-9.061c0,0-15.414,25.621-4.27,54.366c0.521,1.042,1.042,2.083,1.562,3.749L173.305,258.5
	c0,0-15.414,25.621-4.27,54.366c1.041,3.229,2.708,7.499,8.02,10.623c1.562,1.042,3.749,1.562,6.353,1.562
	c-4.791,19.684-10.103,41.556-15.414,66.135c-0.521,2.708,1.042,5.832,4.27,6.353c0,0,0,0,0.521,0l111.44,111.44
	c105.087-10.311,190.906-85.507,218.714-184.762l-215.486-214.86C287.453,109.357,258.083,117.377,244.752,146.643z"/>
<path style="opacity:0.1;enable-background:new    ;" d="M196.843,278.392c-0.521,1.042-0.521,2.083-1.042,3.229l-4.791-4.791
	C193.094,277.871,194.656,278.392,196.843,278.392z"/>
<path style="fill:#334D5C;" d="M196.843,278.392c-2.083,0-4.27-0.521-5.832-1.562l4.791,4.791
	C196.322,280.579,196.843,279.434,196.843,278.392z"/>
<path style="opacity:0.1;enable-background:new    ;" d="M196.843,278.392c-2.083,0-4.27-0.521-5.832-1.562l4.791,4.791
	C196.322,280.579,196.843,279.434,196.843,278.392z"/>
<path style="opacity:0.1;enable-background:new    ;" d="M196.843,278.392c-2.083,0-4.27-0.521-5.832-1.562l4.791,4.791
	C196.322,280.579,196.843,279.434,196.843,278.392z"/>
<path style="fill:#DC8744;" d="M173.828,395.665c-0.141,0-0.283-0.015-0.427-0.044c-1.126-0.235-1.849-1.338-1.614-2.464
	c39.145-187.771,77.355-229.204,78.962-230.876c0.797-0.831,2.114-0.856,2.945-0.058c0.828,0.797,0.855,2.112,0.06,2.942
	c-0.46,0.487-39.135,42.946-77.889,228.842C175.66,394.989,174.793,395.665,173.828,395.665z"/>
<path style="fill:#F6C358;" d="M265.061,163.723c14.893-15.414,22.392-54.366,22.392-54.366s-30.412,8.02-43.222,38.431
	c-1.562,3.229-3.749,7.499-1.562,13.852C244.752,167.473,252.251,177.575,265.061,163.723z"/>
<path style="fill:#FCD462;" d="M287.453,109.357c0,0-7.499,38.952-22.392,54.366c-8.54,9.061-14.893,7.499-18.643,4.27
	L287.453,109.357z"/>
<path style="fill:#F6C358;" d="M241.627,174.972c0-20.309-20.309-51.762-20.309-51.762s-15.414,25.621-4.27,54.366
	c1.042,3.229,2.708,7.499,8.02,10.623C229.858,190.906,241.627,193.094,241.627,174.972z"/>
<path style="fill:#FCD462;" d="M221.318,123.209c0,0,20.309,31.453,20.309,51.762c0,11.769-5.312,14.893-10.103,14.893
	L221.318,123.209z"/>
<path style="fill:#F6C358;" d="M254.958,203.717c19.164-7.499,40.514-37.91,40.514-37.91s-29.37-4.791-52.283,16.039
	c-2.708,2.083-5.832,4.791-6.978,11.769C235.691,198.926,238.399,210.695,254.958,203.717z"/>
<path style="fill:#FCD462;" d="M295.473,165.91c0,0-21.871,30.412-40.514,37.911c-11.248,4.27-16.039,0.521-17.601-3.749
	L295.473,165.91z"/>
<path style="fill:#F6C358;" d="M222.36,222.985c0-20.309-20.309-51.762-20.309-51.762s-15.414,25.621-4.27,54.366
	c1.042,3.229,2.708,7.499,8.02,10.623C210.695,238.919,222.36,241.107,222.36,222.985z"/>
<path style="fill:#FCD462;" d="M202.155,171.222c0,0,20.309,31.453,20.309,51.762c0,11.769-5.312,14.893-10.103,14.893
	L202.155,171.222z"/>
<path style="fill:#F6C358;" d="M239.961,242.148c19.164-6.978,42.076-36.765,42.076-36.765s-28.745-5.832-52.804,14.373
	c-2.708,2.083-6.353,4.791-7.499,11.248C220.797,236.316,222.985,247.98,239.961,242.148z"/>
<path style="fill:#FCD462;" d="M282.142,205.383c0,0-22.913,29.891-42.076,36.765c-11.248,4.27-16.039,0-17.601-4.27
	L282.142,205.383z"/>
<path style="fill:#F6C358;" d="M207.466,263.499c0-20.309-20.309-51.762-20.309-51.762s-15.414,25.621-4.27,54.366
	c1.041,3.229,2.708,7.499,8.02,10.623C195.697,279.434,207.466,281.621,207.466,263.499z"/>
<path style="fill:#FCD462;" d="M187.261,211.736c0,0,20.309,31.453,20.309,51.762c0,11.769-5.312,14.893-10.103,14.893
	L187.261,211.736z"/>
<path style="fill:#F6C358;" d="M224.547,283.704c19.684-4.791,45.305-31.974,45.305-31.974s-28.225-9.061-53.845,9.061
	c-2.708,2.083-6.353,4.27-8.54,10.623C206.425,275.684,207.466,287.974,224.547,283.704z"/>
<path style="fill:#FCD462;" d="M270.373,251.209c0,0-25.621,27.183-45.305,31.974c-11.769,2.708-16.039-1.562-17.081-6.353
	L270.373,251.209z"/>
<path style="fill:#F6C358;" d="M194.135,310.887c0-20.309-20.309-51.762-20.309-51.762s-15.414,25.621-4.27,54.366
	c1.042,3.229,2.708,7.499,8.02,10.623C182.366,326.926,194.135,329.009,194.135,310.887z"/>
<path style="fill:#FCD462;" d="M173.93,259.229c0,0,20.309,31.453,20.309,51.762c0,11.769-5.312,14.893-10.103,14.893
	L173.93,259.229z"/>
<path style="fill:#F6C358;" d="M212.257,329.009c19.164-6.353,42.701-36.244,42.701-36.244s-28.745-6.353-53.325,13.331
	c-2.708,2.083-6.353,4.791-7.499,11.248C193.094,322.656,195.177,334.945,212.257,329.009z"/>
<path style="fill:#FCD462;" d="M254.438,292.765c0,0-22.913,29.37-42.701,36.244c-11.248,3.749-16.039,0-17.601-4.791
	L254.438,292.765z"/>
<path style="fill:#DC8744;" d="M241.627,404.727c-0.235,0-0.474-0.041-0.708-0.125c-1.082-0.391-1.642-1.584-1.251-2.667
	c44.99-124.525,75.126-149.285,76.388-150.279c0.902-0.711,2.214-0.555,2.926,0.348c0.71,0.902,0.556,2.208-0.342,2.921
	c-0.334,0.268-30.67,25.581-75.052,148.426C243.28,404.199,242.48,404.727,241.627,404.727z"/>
<path style="fill:#F6C358;" d="M326.405,254.958c11.769-9.061,20.309-35.203,20.309-35.203s-21.351,2.708-33.015,21.871
	c-1.042,2.083-3.229,4.791-2.083,9.582C311.408,254.958,315.678,262.978,326.405,254.958z"/>
<path style="fill:#FCD462;" d="M346.61,219.756c0,0-9.061,25.621-20.309,35.203c-6.978,5.312-10.623,3.749-13.331,1.042
	L346.61,219.756z"/>
<path style="fill:#F6C358;" d="M308.804,260.27c2.083-13.852-9.061-37.286-9.061-37.286s-12.81,16.039-8.02,36.765
	c0.521,2.083,1.041,5.312,4.791,8.02C299.222,269.852,307.242,272.039,308.804,260.27z"/>
<path style="fill:#FCD462;" d="M299.743,222.36c0,0,10.623,23.434,9.061,37.286c-1.042,8.02-4.791,9.582-8.54,9.061L299.743,222.36z
	"/>
<path style="fill:#F6C358;" d="M315.157,281.1c13.852-3.229,31.453-21.871,31.453-21.871s-19.684-6.353-37.286,5.832
	c-2.083,1.042-4.791,2.708-5.832,6.978C302.347,275.684,302.971,283.704,315.157,281.1z"/>
<path style="fill:#FCD462;" d="M346.61,259.229c0,0-17.601,18.643-31.453,21.871c-8.02,2.083-10.623-1.042-11.769-4.27
	L346.61,259.229z"/>
<path style="fill:#F6C358;" d="M291.203,291.203c2.083-13.852-9.061-37.286-9.061-37.286s-12.81,16.039-8.02,36.765
	c0.521,2.083,1.042,5.312,4.791,8.02C281.621,300.784,289.64,303.492,291.203,291.203z"/>
<path style="fill:#FCD462;" d="M282.142,253.917c0,0,10.623,23.434,9.061,37.286c-1.042,8.02-4.791,9.582-8.54,9.061
	L282.142,253.917z"/>
<path style="fill:#F6C358;" d="M301.305,305.575c13.852-2.708,31.974-20.83,31.974-20.83s-19.164-6.978-37.286,4.791
	c-2.083,1.042-4.791,2.708-5.832,6.978C289.015,299.743,289.015,308.283,301.305,305.575z"/>
<path style="fill:#FCD462;" d="M333.279,284.745c0,0-18.643,18.122-31.974,20.83c-8.02,1.562-10.623-1.562-11.769-4.791
	L333.279,284.745z"/>
<path style="fill:#F6C358;" d="M277.351,317.344c2.083-13.852-9.061-37.286-9.061-37.286s-12.81,16.039-8.02,36.765
	c0.521,2.083,1.042,5.312,4.791,8.02C267.769,326.926,275.164,329.634,277.351,317.344z"/>
<path style="fill:#FCD462;" d="M268.29,279.954c0,0,10.623,23.434,9.061,37.286c-1.042,8.02-4.791,9.582-8.54,9.061L268.29,279.954z
	"/>
<path style="fill:#F6C358;" d="M286.932,332.238c13.852-1.562,34.161-17.601,34.161-17.601s-18.643-8.54-37.91,1.042
	c-2.083,1.041-4.791,2.083-6.978,6.353C275.164,325.364,274.643,333.904,286.932,332.238z"/>
<path style="fill:#FCD462;" d="M321.094,314.636c0,0-20.309,16.039-34.161,17.601c-8.02,1.042-10.623-2.708-11.248-5.832
	L321.094,314.636z"/>
<path style="fill:#F6C358;" d="M263.499,348.277c2.083-13.852-9.061-37.286-9.061-37.286s-12.81,16.039-8.02,36.765
	c0.521,2.083,1.041,5.312,4.791,8.02C253.917,358.379,261.832,360.566,263.499,348.277z"/>
<path style="fill:#FCD462;" d="M254.438,310.887c0,0,10.623,23.434,9.061,37.286c-1.042,8.02-4.791,9.582-8.54,9.061
	L254.438,310.887z"/>
<path style="fill:#F6C358;" d="M273.601,362.129c13.852-2.708,32.495-20.83,32.495-20.83s-19.164-6.978-37.286,4.27
	c-2.083,1.042-4.791,2.708-5.832,6.978C261.312,356.296,261.832,364.732,273.601,362.129z"/>
<path style="fill:#FCD462;" d="M306.096,341.819c0,0-18.643,17.601-32.495,20.83c-8.02,1.562-10.623-1.562-11.769-4.791
	L306.096,341.819z"/>
<g>
</g>
<g>
</g>
<g>
</g>
<g>
</g>
<g>
</g>
<g>
</g>
<g>
</g>
<g>
</g>
<g>
</g>
<g>
</g>
<g>
</g>
<g>
</g>
<g>
</g>
<g>
</g>
<g>
</g>
</svg>
